<svg width="380" height="142" viewBox="0 0 380 142" fill="none" xmlns="http://www.w3.org/2000/svg">
<g filter="url(#filter0_d_2_16)">
<path d="M10.8705 106.582C45.5706 104.794 19.511 55.851 12.4294 19.6253C11.8108 16.461 15.544 15.1448 17.294 17.8528L33.9881 43.6839L52.8504 70.4685C53.2006 70.9657 53.9586 70.8941 54.2094 70.34L65.565 45.2563L81.9702 10.113C82.4516 9.08177 84.0044 9.51425 83.8651 10.6438C82.8372 18.9786 80.8238 35.2026 78.1302 56.4146C74.1302 87.9146 78.1302 100.415 78.1302 100.415C78.1302 100.415 81.1303 140.28 102.63 122.915C124.13 105.549 234.13 101.915 239.63 122.915" stroke="#B65AFD" stroke-width="10.2202"/>
<path d="M10.8705 106.582C45.5706 104.794 19.511 55.851 12.4294 19.6253C11.8108 16.461 15.544 15.1448 17.294 17.8528L33.9881 43.6839L52.8504 70.4685C53.2006 70.9657 53.9586 70.8941 54.2094 70.34L65.565 45.2563L81.9702 10.113C82.4516 9.08177 84.0044 9.51425 83.8651 10.6438C82.8372 18.9786 80.8238 35.2026 78.1302 56.4146C74.1302 87.9146 78.1302 100.415 78.1302 100.415C78.1302 100.415 81.1303 140.28 102.63 122.915C124.13 105.549 234.13 101.915 239.63 122.915" stroke="url(#paint0_linear_2_16)" stroke-opacity="0.2" stroke-width="10.2202"/>
</g>
<path d="M96.4974 84.6904V62.4752C96.4974 61.4322 97.0189 60.9107 98.0619 60.9107H101.052C102.095 60.9107 102.616 61.4322 102.616 62.4752V83.0217C102.616 87.5644 103.369 90.4499 104.876 91.6783C106.382 92.8835 108.248 93.4861 110.473 93.4861C113.394 93.4861 115.63 92.5938 117.183 90.8092C118.736 89.0014 119.512 85.9188 119.512 81.5615V62.4752C119.512 61.4322 120.034 60.9107 121.077 60.9107H124.067C125.11 60.9107 125.631 61.4322 125.631 62.4752V95.8502C125.631 96.8932 125.11 97.4146 124.067 97.4146H121.146C120.103 97.4146 119.582 96.8932 119.582 95.8502V93.0689H119.443C117.936 94.7377 116.314 95.9777 114.576 96.7889C112.837 97.6001 110.717 98.0057 108.213 98.0057C104.157 98.0057 101.191 96.8236 99.3135 94.4596C97.4361 92.0723 96.4974 88.8159 96.4974 84.6904ZM137.069 97.4146C136.026 97.4146 135.504 96.8932 135.504 95.8502V62.4752C135.504 61.4322 136.026 60.9107 137.069 60.9107H139.989C141.032 60.9107 141.554 61.4322 141.554 62.4752V66.6471H141.693C142.805 64.5611 144.115 62.9851 145.621 61.9189C147.128 60.8528 149.005 60.3197 151.253 60.3197C152.737 60.3197 153.78 60.4472 154.382 60.7021C154.915 60.9107 155.112 61.2584 154.973 61.7451L154.174 64.5959C154.058 65.0131 153.756 65.1753 153.27 65.0826C152.459 64.9204 151.694 64.8393 150.975 64.8393C148.263 64.8393 146.027 66.0676 144.265 68.5244C142.504 70.958 141.623 74.2839 141.623 78.5021V95.8502C141.623 96.8932 141.102 97.4146 140.059 97.4146H137.069ZM162.17 97.4146C161.127 97.4146 160.605 96.8932 160.605 95.8502V62.4752C160.605 61.4322 161.127 60.9107 162.17 60.9107H165.16C166.203 60.9107 166.724 61.4322 166.724 62.4752V95.8502C166.724 96.8932 166.203 97.4146 165.16 97.4146H162.17ZM162.17 54.3053C161.127 54.3053 160.605 53.7838 160.605 52.7408V49.751C160.605 48.708 161.127 48.1865 162.17 48.1865H165.16C166.203 48.1865 166.724 48.708 166.724 49.751V52.7408C166.724 53.7838 166.203 54.3053 165.16 54.3053H162.17ZM178.162 97.4146C177.119 97.4146 176.597 96.8932 176.597 95.8502V52.4627C176.597 51.9991 176.713 51.5588 176.945 51.1416L179.379 46.7264C179.819 45.9152 180.178 45.5096 180.456 45.5096H181.673C182.369 45.5096 182.716 45.9152 182.716 46.7264V95.8502C182.716 96.8932 182.195 97.4146 181.152 97.4146H178.162ZM190.608 79.1627C190.608 73.7161 192.045 69.2197 194.919 65.6736C197.816 62.1044 202.046 60.3197 207.608 60.3197C213.171 60.3197 217.389 62.1044 220.263 65.6736C223.16 69.2197 224.609 73.7161 224.609 79.1627C224.609 84.6093 223.16 89.1172 220.263 92.6865C217.389 96.2326 213.171 98.0057 207.608 98.0057C202.046 98.0057 197.816 96.2326 194.919 92.6865C192.045 89.1172 190.608 84.6093 190.608 79.1627ZM197.074 79.1627C197.074 84.0299 198.036 87.6339 199.96 89.9748C201.884 92.3157 204.433 93.4861 207.608 93.4861C210.784 93.4861 213.333 92.3157 215.257 89.9748C217.181 87.6339 218.142 84.0299 218.142 79.1627C218.142 74.2955 217.181 70.6915 215.257 68.3506C213.333 66.0097 210.784 64.8393 207.608 64.8393C204.433 64.8393 201.884 66.0097 199.96 68.3506C198.036 70.6915 197.074 74.2955 197.074 79.1627Z" fill="#B65AFD"/>
<path d="M96.4974 84.6904V62.4752C96.4974 61.4322 97.0189 60.9107 98.0619 60.9107H101.052C102.095 60.9107 102.616 61.4322 102.616 62.4752V83.0217C102.616 87.5644 103.369 90.4499 104.876 91.6783C106.382 92.8835 108.248 93.4861 110.473 93.4861C113.394 93.4861 115.63 92.5938 117.183 90.8092C118.736 89.0014 119.512 85.9188 119.512 81.5615V62.4752C119.512 61.4322 120.034 60.9107 121.077 60.9107H124.067C125.11 60.9107 125.631 61.4322 125.631 62.4752V95.8502C125.631 96.8932 125.11 97.4146 124.067 97.4146H121.146C120.103 97.4146 119.582 96.8932 119.582 95.8502V93.0689H119.443C117.936 94.7377 116.314 95.9777 114.576 96.7889C112.837 97.6001 110.717 98.0057 108.213 98.0057C104.157 98.0057 101.191 96.8236 99.3135 94.4596C97.4361 92.0723 96.4974 88.8159 96.4974 84.6904ZM137.069 97.4146C136.026 97.4146 135.504 96.8932 135.504 95.8502V62.4752C135.504 61.4322 136.026 60.9107 137.069 60.9107H139.989C141.032 60.9107 141.554 61.4322 141.554 62.4752V66.6471H141.693C142.805 64.5611 144.115 62.9851 145.621 61.9189C147.128 60.8528 149.005 60.3197 151.253 60.3197C152.737 60.3197 153.78 60.4472 154.382 60.7021C154.915 60.9107 155.112 61.2584 154.973 61.7451L154.174 64.5959C154.058 65.0131 153.756 65.1753 153.27 65.0826C152.459 64.9204 151.694 64.8393 150.975 64.8393C148.263 64.8393 146.027 66.0676 144.265 68.5244C142.504 70.958 141.623 74.2839 141.623 78.5021V95.8502C141.623 96.8932 141.102 97.4146 140.059 97.4146H137.069ZM162.17 97.4146C161.127 97.4146 160.605 96.8932 160.605 95.8502V62.4752C160.605 61.4322 161.127 60.9107 162.17 60.9107H165.16C166.203 60.9107 166.724 61.4322 166.724 62.4752V95.8502C166.724 96.8932 166.203 97.4146 165.16 97.4146H162.17ZM162.17 54.3053C161.127 54.3053 160.605 53.7838 160.605 52.7408V49.751C160.605 48.708 161.127 48.1865 162.17 48.1865H165.16C166.203 48.1865 166.724 48.708 166.724 49.751V52.7408C166.724 53.7838 166.203 54.3053 165.16 54.3053H162.17ZM178.162 97.4146C177.119 97.4146 176.597 96.8932 176.597 95.8502V52.4627C176.597 51.9991 176.713 51.5588 176.945 51.1416L179.379 46.7264C179.819 45.9152 180.178 45.5096 180.456 45.5096H181.673C182.369 45.5096 182.716 45.9152 182.716 46.7264V95.8502C182.716 96.8932 182.195 97.4146 181.152 97.4146H178.162ZM190.608 79.1627C190.608 73.7161 192.045 69.2197 194.919 65.6736C197.816 62.1044 202.046 60.3197 207.608 60.3197C213.171 60.3197 217.389 62.1044 220.263 65.6736C223.16 69.2197 224.609 73.7161 224.609 79.1627C224.609 84.6093 223.16 89.1172 220.263 92.6865C217.389 96.2326 213.171 98.0057 207.608 98.0057C202.046 98.0057 197.816 96.2326 194.919 92.6865C192.045 89.1172 190.608 84.6093 190.608 79.1627ZM197.074 79.1627C197.074 84.0299 198.036 87.6339 199.96 89.9748C201.884 92.3157 204.433 93.4861 207.608 93.4861C210.784 93.4861 213.333 92.3157 215.257 89.9748C217.181 87.6339 218.142 84.0299 218.142 79.1627C218.142 74.2955 217.181 70.6915 215.257 68.3506C213.333 66.0097 210.784 64.8393 207.608 64.8393C204.433 64.8393 201.884 66.0097 199.96 68.3506C198.036 70.6915 197.074 74.2955 197.074 79.1627Z" fill="url(#paint1_linear_2_16)" fill-opacity="0.2"/>
<path d="M230.762 72.4877C230.762 64.3757 232.767 58.0252 236.777 53.4361C240.81 48.8239 246.592 46.5178 254.125 46.5178C258.528 46.5178 262.167 47.271 265.041 48.7775C267.915 50.2609 269.978 52.3005 271.229 54.8963C271.878 56.2406 271.774 57.1676 270.917 57.6775L268.17 59.2768C267.243 59.8098 266.42 59.3695 265.702 57.9557C264.937 56.4955 263.685 55.1281 261.947 53.8533C260.209 52.5786 257.717 51.9412 254.472 51.9412C248.678 51.9412 244.46 53.749 241.818 57.3646C239.199 60.9571 237.889 65.9981 237.889 72.4877C237.889 78.9773 239.199 84.0299 241.818 87.6455C244.46 91.2379 248.678 93.0342 254.472 93.0342C257.81 93.0342 260.475 92.2693 262.469 90.7396C264.485 89.21 265.945 87.6107 266.849 85.942C267.567 84.5977 268.402 84.1921 269.352 84.7252L272.238 86.3592C273.072 86.8459 273.142 87.773 272.446 89.1404C271.079 91.8058 268.854 94.0308 265.771 95.8154C262.689 97.5769 258.807 98.4576 254.125 98.4576C246.592 98.4576 240.81 96.1631 236.777 91.574C232.767 86.9618 230.762 80.5997 230.762 72.4877ZM282.806 97.4146C281.763 97.4146 281.242 96.8932 281.242 95.8502V47.665C281.242 46.6221 281.763 46.1006 282.806 46.1006H285.796C286.839 46.1006 287.361 46.6221 287.361 47.665V63.1705C287.361 63.8658 287.338 64.5611 287.291 65.2564H287.43C288.937 63.5877 290.559 62.3477 292.297 61.5365C294.036 60.7253 296.203 60.3197 298.799 60.3197C303.017 60.3197 306.041 61.5133 307.872 63.9006C309.727 66.2646 310.654 69.5094 310.654 73.635V95.8502C310.654 96.8932 310.132 97.4146 309.089 97.4146H306.099C305.056 97.4146 304.535 96.8932 304.535 95.8502V75.3037C304.535 70.761 303.782 67.887 302.275 66.6818C300.769 65.4534 298.857 64.8393 296.539 64.8393C293.526 64.8393 291.243 65.7432 289.69 67.551C288.137 69.3356 287.361 72.4066 287.361 76.7639V95.8502C287.361 96.8932 286.839 97.4146 285.796 97.4146H282.806ZM318.476 87.6803C318.476 83.5547 320.4 80.5301 324.247 78.6064C328.118 76.6827 333.889 75.5587 341.56 75.2342V72.8701C341.56 70.6915 341.062 68.8141 340.065 67.2381C339.092 65.6389 337.145 64.8393 334.225 64.8393C332.371 64.8393 330.887 65.0247 329.775 65.3955C328.662 65.7432 327.642 66.2183 326.715 66.8209C325.811 67.4003 324.942 68.1536 324.108 69.0807C323.482 69.776 322.891 69.8107 322.335 69.185L320.527 67.099C320.017 66.5196 320.191 65.8243 321.049 65.0131C322.277 63.8542 323.471 62.9851 324.629 62.4057C325.788 61.8262 327.225 61.3395 328.94 60.9455C330.679 60.5283 332.44 60.3197 334.225 60.3197C339.069 60.3197 342.522 61.5713 344.585 64.0744C346.648 66.5544 347.679 69.9614 347.679 74.2955V95.8502C347.679 96.8932 347.158 97.4146 346.115 97.4146H342.986C342.082 97.4146 341.63 96.8932 341.63 95.8502V94.1467H341.56C339.729 95.5837 337.933 96.5919 336.172 97.1713C334.433 97.7275 332.486 98.0057 330.331 98.0057C326.53 98.0057 323.598 97.1018 321.535 95.2939C319.496 93.4629 318.476 90.9251 318.476 87.6803ZM324.803 87.8193C324.803 89.2563 325.105 90.4152 325.707 91.2959C326.31 92.1534 327.144 92.7097 328.21 92.9646C329.276 93.1964 330.389 93.3123 331.548 93.3123C333.332 93.3123 335.024 93.1385 336.624 92.7908C338.223 92.4432 339.868 91.5277 341.56 90.0443V79.7885C336.879 80.1361 333.541 80.5649 331.548 81.0748C329.555 81.5615 327.932 82.4191 326.681 83.6475C325.429 84.8527 324.803 86.2433 324.803 87.8193ZM355.814 65.4998C354.771 65.4998 354.25 65.0942 354.25 64.283V62.1275C354.25 61.3163 354.771 60.9107 355.814 60.9107H359.917V57.7818C359.917 57.3183 360.032 56.8779 360.264 56.4607L362.698 52.0455C363.138 51.2343 363.497 50.8287 363.776 50.8287H364.992C365.688 50.8287 366.035 51.2343 366.035 52.0455V60.9107H373.44C374.483 60.9107 375.005 61.3163 375.005 62.1275V64.283C375.005 65.0942 374.483 65.4998 373.44 65.4998H366.035V87.6455C366.035 90.0791 366.395 91.6667 367.113 92.4084C367.855 93.1269 368.735 93.4861 369.755 93.4861C370.543 93.4861 371.482 93.2544 372.571 92.7908C373.684 92.3273 374.449 91.9333 374.866 91.6088C375.283 91.2843 375.607 91.3886 375.839 91.9217L376.986 94.5986C377.172 95.0622 377.033 95.433 376.569 95.7111C375.665 96.2442 374.344 96.7657 372.606 97.2756C370.868 97.7623 369.129 98.0057 367.391 98.0057C364.981 98.0057 363.127 97.1365 361.829 95.3982C360.554 93.66 359.917 91.2032 359.917 88.0279V65.4998H355.814Z" fill="white"/>
<defs>
<filter id="filter0_d_2_16" x="0.962897" y="1.29598" width="249.9" height="140.552" filterUnits="userSpaceOnUse" color-interpolation-filters="sRGB">
<feFlood flood-opacity="0" result="BackgroundImageFix"/>
<feColorMatrix in="SourceAlpha" type="matrix" values="0 0 0 0 0 0 0 0 0 0 0 0 0 0 0 0 0 0 127 0" result="hardAlpha"/>
<feOffset dy="3.14467"/>
<feGaussianBlur stdDeviation="3.14467"/>
<feComposite in2="hardAlpha" operator="out"/>
<feColorMatrix type="matrix" values="0 0 0 0 1 0 0 0 0 1 0 0 0 0 1 0 0 0 0.11 0"/>
<feBlend mode="normal" in2="BackgroundImageFix" result="effect1_dropShadow_2_16"/>
<feBlend mode="normal" in="SourceGraphic" in2="effect1_dropShadow_2_16" result="shape"/>
</filter>
<linearGradient id="paint0_linear_2_16" x1="59.8263" y1="1.25778" x2="53.3274" y2="109.139" gradientUnits="userSpaceOnUse">
<stop stop-color="#FF0000"/>
<stop offset="0.5" stop-color="#FF0000" stop-opacity="0.54"/>
<stop offset="1" stop-color="#FF0000" stop-opacity="0"/>
</linearGradient>
<linearGradient id="paint1_linear_2_16" x1="235.63" y1="26.4146" x2="235.63" y2="128.415" gradientUnits="userSpaceOnUse">
<stop stop-color="#FF0000"/>
<stop offset="1" stop-color="#FF0000" stop-opacity="0"/>
</linearGradient>
</defs>
</svg>
