<svg width="402" height="153" viewBox="0 0 402 153" fill="none" xmlns="http://www.w3.org/2000/svg">
<rect width="402" height="153" fill="#0D1117"/>
<g filter="url(#filter0_d_7_14)">
<path d="M19.8705 114.582C54.5706 112.794 28.511 63.851 21.4294 27.6253C20.8108 24.461 24.544 23.1448 26.294 25.8528L42.9881 51.6839L61.8504 78.4685C62.2006 78.9657 62.9586 78.8941 63.2094 78.34L74.565 53.2563L90.9702 18.113C91.4516 17.0818 93.0044 17.5143 92.8651 18.6438C91.8372 26.9786 89.8238 43.2026 87.1302 64.4146C83.1302 95.9146 87.1302 108.415 87.1302 108.415C87.1302 108.415 90.1303 148.28 111.63 130.915C133.13 113.549 243.13 109.915 248.63 130.915" stroke="#B65AFD" stroke-width="10.2202"/>
<path d="M19.8705 114.582C54.5706 112.794 28.511 63.851 21.4294 27.6253C20.8108 24.461 24.544 23.1448 26.294 25.8528L42.9881 51.6839L61.8504 78.4685C62.2006 78.9657 62.9586 78.8941 63.2094 78.34L74.565 53.2563L90.9702 18.113C91.4516 17.0818 93.0044 17.5143 92.8651 18.6438C91.8372 26.9786 89.8238 43.2026 87.1302 64.4146C83.1302 95.9146 87.1302 108.415 87.1302 108.415C87.1302 108.415 90.1303 148.28 111.63 130.915C133.13 113.549 243.13 109.915 248.63 130.915" stroke="url(#paint0_linear_7_14)" stroke-opacity="0.2" stroke-width="10.2202"/>
</g>
<g filter="url(#filter1_d_7_14)">
<path d="M105.497 92.6904V70.4752C105.497 69.4322 106.019 68.9107 107.062 68.9107H110.052C111.095 68.9107 111.616 69.4322 111.616 70.4752V91.0217C111.616 95.5644 112.369 98.4499 113.876 99.6783C115.382 100.884 117.248 101.486 119.473 101.486C122.394 101.486 124.63 100.594 126.183 98.8092C127.736 97.0014 128.512 93.9188 128.512 89.5615V70.4752C128.512 69.4322 129.034 68.9107 130.077 68.9107H133.067C134.11 68.9107 134.631 69.4322 134.631 70.4752V103.85C134.631 104.893 134.11 105.415 133.067 105.415H130.146C129.103 105.415 128.582 104.893 128.582 103.85V101.069H128.443C126.936 102.738 125.314 103.978 123.576 104.789C121.837 105.6 119.717 106.006 117.213 106.006C113.157 106.006 110.191 104.824 108.313 102.46C106.436 100.072 105.497 96.8159 105.497 92.6904ZM146.069 105.415C145.026 105.415 144.504 104.893 144.504 103.85V70.4752C144.504 69.4322 145.026 68.9107 146.069 68.9107H148.989C150.032 68.9107 150.554 69.4322 150.554 70.4752V74.6471H150.693C151.805 72.5611 153.115 70.9851 154.621 69.9189C156.128 68.8528 158.005 68.3197 160.253 68.3197C161.737 68.3197 162.78 68.4472 163.382 68.7021C163.915 68.9107 164.112 69.2584 163.973 69.7451L163.174 72.5959C163.058 73.0131 162.756 73.1753 162.27 73.0826C161.459 72.9204 160.694 72.8393 159.975 72.8393C157.263 72.8393 155.027 74.0676 153.265 76.5244C151.504 78.958 150.623 82.2839 150.623 86.5021V103.85C150.623 104.893 150.102 105.415 149.059 105.415H146.069ZM171.17 105.415C170.127 105.415 169.605 104.893 169.605 103.85V70.4752C169.605 69.4322 170.127 68.9107 171.17 68.9107H174.16C175.203 68.9107 175.724 69.4322 175.724 70.4752V103.85C175.724 104.893 175.203 105.415 174.16 105.415H171.17ZM171.17 62.3053C170.127 62.3053 169.605 61.7838 169.605 60.7408V57.751C169.605 56.708 170.127 56.1865 171.17 56.1865H174.16C175.203 56.1865 175.724 56.708 175.724 57.751V60.7408C175.724 61.7838 175.203 62.3053 174.16 62.3053H171.17ZM187.162 105.415C186.119 105.415 185.597 104.893 185.597 103.85V60.4627C185.597 59.9991 185.713 59.5588 185.945 59.1416L188.379 54.7264C188.819 53.9152 189.178 53.5096 189.456 53.5096H190.673C191.369 53.5096 191.716 53.9152 191.716 54.7264V103.85C191.716 104.893 191.195 105.415 190.152 105.415H187.162ZM199.608 87.1627C199.608 81.7161 201.045 77.2197 203.919 73.6736C206.816 70.1044 211.046 68.3197 216.608 68.3197C222.171 68.3197 226.389 70.1044 229.263 73.6736C232.16 77.2197 233.609 81.7161 233.609 87.1627C233.609 92.6093 232.16 97.1172 229.263 100.687C226.389 104.233 222.171 106.006 216.608 106.006C211.046 106.006 206.816 104.233 203.919 100.687C201.045 97.1172 199.608 92.6093 199.608 87.1627ZM206.074 87.1627C206.074 92.0299 207.036 95.6339 208.96 97.9748C210.884 100.316 213.433 101.486 216.608 101.486C219.784 101.486 222.333 100.316 224.257 97.9748C226.181 95.6339 227.142 92.0299 227.142 87.1627C227.142 82.2955 226.181 78.6915 224.257 76.3506C222.333 74.0097 219.784 72.8393 216.608 72.8393C213.433 72.8393 210.884 74.0097 208.96 76.3506C207.036 78.6915 206.074 82.2955 206.074 87.1627Z" fill="#B65AFD"/>
<path d="M105.497 92.6904V70.4752C105.497 69.4322 106.019 68.9107 107.062 68.9107H110.052C111.095 68.9107 111.616 69.4322 111.616 70.4752V91.0217C111.616 95.5644 112.369 98.4499 113.876 99.6783C115.382 100.884 117.248 101.486 119.473 101.486C122.394 101.486 124.63 100.594 126.183 98.8092C127.736 97.0014 128.512 93.9188 128.512 89.5615V70.4752C128.512 69.4322 129.034 68.9107 130.077 68.9107H133.067C134.11 68.9107 134.631 69.4322 134.631 70.4752V103.85C134.631 104.893 134.11 105.415 133.067 105.415H130.146C129.103 105.415 128.582 104.893 128.582 103.85V101.069H128.443C126.936 102.738 125.314 103.978 123.576 104.789C121.837 105.6 119.717 106.006 117.213 106.006C113.157 106.006 110.191 104.824 108.313 102.46C106.436 100.072 105.497 96.8159 105.497 92.6904ZM146.069 105.415C145.026 105.415 144.504 104.893 144.504 103.85V70.4752C144.504 69.4322 145.026 68.9107 146.069 68.9107H148.989C150.032 68.9107 150.554 69.4322 150.554 70.4752V74.6471H150.693C151.805 72.5611 153.115 70.9851 154.621 69.9189C156.128 68.8528 158.005 68.3197 160.253 68.3197C161.737 68.3197 162.78 68.4472 163.382 68.7021C163.915 68.9107 164.112 69.2584 163.973 69.7451L163.174 72.5959C163.058 73.0131 162.756 73.1753 162.27 73.0826C161.459 72.9204 160.694 72.8393 159.975 72.8393C157.263 72.8393 155.027 74.0676 153.265 76.5244C151.504 78.958 150.623 82.2839 150.623 86.5021V103.85C150.623 104.893 150.102 105.415 149.059 105.415H146.069ZM171.17 105.415C170.127 105.415 169.605 104.893 169.605 103.85V70.4752C169.605 69.4322 170.127 68.9107 171.17 68.9107H174.16C175.203 68.9107 175.724 69.4322 175.724 70.4752V103.85C175.724 104.893 175.203 105.415 174.16 105.415H171.17ZM171.17 62.3053C170.127 62.3053 169.605 61.7838 169.605 60.7408V57.751C169.605 56.708 170.127 56.1865 171.17 56.1865H174.16C175.203 56.1865 175.724 56.708 175.724 57.751V60.7408C175.724 61.7838 175.203 62.3053 174.16 62.3053H171.17ZM187.162 105.415C186.119 105.415 185.597 104.893 185.597 103.85V60.4627C185.597 59.9991 185.713 59.5588 185.945 59.1416L188.379 54.7264C188.819 53.9152 189.178 53.5096 189.456 53.5096H190.673C191.369 53.5096 191.716 53.9152 191.716 54.7264V103.85C191.716 104.893 191.195 105.415 190.152 105.415H187.162ZM199.608 87.1627C199.608 81.7161 201.045 77.2197 203.919 73.6736C206.816 70.1044 211.046 68.3197 216.608 68.3197C222.171 68.3197 226.389 70.1044 229.263 73.6736C232.16 77.2197 233.609 81.7161 233.609 87.1627C233.609 92.6093 232.16 97.1172 229.263 100.687C226.389 104.233 222.171 106.006 216.608 106.006C211.046 106.006 206.816 104.233 203.919 100.687C201.045 97.1172 199.608 92.6093 199.608 87.1627ZM206.074 87.1627C206.074 92.0299 207.036 95.6339 208.96 97.9748C210.884 100.316 213.433 101.486 216.608 101.486C219.784 101.486 222.333 100.316 224.257 97.9748C226.181 95.6339 227.142 92.0299 227.142 87.1627C227.142 82.2955 226.181 78.6915 224.257 76.3506C222.333 74.0097 219.784 72.8393 216.608 72.8393C213.433 72.8393 210.884 74.0097 208.96 76.3506C207.036 78.6915 206.074 82.2955 206.074 87.1627Z" fill="url(#paint1_linear_7_14)" fill-opacity="0.2"/>
<path d="M239.762 80.4877C239.762 72.3757 241.767 66.0252 245.777 61.4361C249.81 56.8239 255.592 54.5178 263.125 54.5178C267.528 54.5178 271.167 55.271 274.041 56.7775C276.915 58.2609 278.978 60.3005 280.229 62.8963C280.878 64.2406 280.774 65.1676 279.917 65.6775L277.17 67.2768C276.243 67.8098 275.42 67.3695 274.702 65.9557C273.937 64.4955 272.685 63.1281 270.947 61.8533C269.209 60.5786 266.717 59.9412 263.472 59.9412C257.678 59.9412 253.46 61.749 250.818 65.3646C248.199 68.9571 246.889 73.9981 246.889 80.4877C246.889 86.9773 248.199 92.0299 250.818 95.6455C253.46 99.2379 257.678 101.034 263.472 101.034C266.81 101.034 269.475 100.269 271.469 98.7396C273.485 97.21 274.945 95.6107 275.849 93.942C276.567 92.5977 277.402 92.1921 278.352 92.7252L281.238 94.3592C282.072 94.8459 282.142 95.773 281.446 97.1404C280.079 99.8058 277.854 102.031 274.771 103.815C271.689 105.577 267.807 106.458 263.125 106.458C255.592 106.458 249.81 104.163 245.777 99.574C241.767 94.9618 239.762 88.5997 239.762 80.4877ZM291.806 105.415C290.763 105.415 290.242 104.893 290.242 103.85V55.665C290.242 54.6221 290.763 54.1006 291.806 54.1006H294.796C295.839 54.1006 296.361 54.6221 296.361 55.665V71.1705C296.361 71.8658 296.338 72.5611 296.291 73.2564H296.43C297.937 71.5877 299.559 70.3477 301.297 69.5365C303.036 68.7253 305.203 68.3197 307.799 68.3197C312.017 68.3197 315.041 69.5133 316.872 71.9006C318.727 74.2646 319.654 77.5094 319.654 81.635V103.85C319.654 104.893 319.132 105.415 318.089 105.415H315.099C314.056 105.415 313.535 104.893 313.535 103.85V83.3037C313.535 78.761 312.782 75.887 311.275 74.6818C309.769 73.4534 307.857 72.8393 305.539 72.8393C302.526 72.8393 300.243 73.7432 298.69 75.551C297.137 77.3356 296.361 80.4066 296.361 84.7639V103.85C296.361 104.893 295.839 105.415 294.796 105.415H291.806ZM327.476 95.6803C327.476 91.5547 329.4 88.5301 333.247 86.6064C337.118 84.6827 342.889 83.5587 350.56 83.2342V80.8701C350.56 78.6915 350.062 76.8141 349.065 75.2381C348.092 73.6389 346.145 72.8393 343.225 72.8393C341.371 72.8393 339.887 73.0247 338.775 73.3955C337.662 73.7432 336.642 74.2183 335.715 74.8209C334.811 75.4003 333.942 76.1536 333.108 77.0807C332.482 77.776 331.891 77.8107 331.335 77.185L329.527 75.099C329.017 74.5196 329.191 73.8243 330.049 73.0131C331.277 71.8542 332.471 70.9851 333.629 70.4057C334.788 69.8262 336.225 69.3395 337.94 68.9455C339.679 68.5283 341.44 68.3197 343.225 68.3197C348.069 68.3197 351.522 69.5713 353.585 72.0744C355.648 74.5544 356.679 77.9614 356.679 82.2955V103.85C356.679 104.893 356.158 105.415 355.115 105.415H351.986C351.082 105.415 350.63 104.893 350.63 103.85V102.147H350.56C348.729 103.584 346.933 104.592 345.172 105.171C343.433 105.728 341.486 106.006 339.331 106.006C335.53 106.006 332.598 105.102 330.535 103.294C328.496 101.463 327.476 98.9251 327.476 95.6803ZM333.803 95.8193C333.803 97.2563 334.105 98.4152 334.707 99.2959C335.31 100.153 336.144 100.71 337.21 100.965C338.276 101.196 339.389 101.312 340.548 101.312C342.332 101.312 344.024 101.138 345.624 100.791C347.223 100.443 348.868 99.5277 350.56 98.0443V87.7885C345.879 88.1361 342.541 88.5649 340.548 89.0748C338.555 89.5615 336.932 90.4191 335.681 91.6475C334.429 92.8527 333.803 94.2433 333.803 95.8193ZM364.814 73.4998C363.771 73.4998 363.25 73.0942 363.25 72.283V70.1275C363.25 69.3163 363.771 68.9107 364.814 68.9107H368.917V65.7818C368.917 65.3183 369.032 64.8779 369.264 64.4607L371.698 60.0455C372.138 59.2343 372.497 58.8287 372.776 58.8287H373.992C374.688 58.8287 375.035 59.2343 375.035 60.0455V68.9107H382.44C383.483 68.9107 384.005 69.3163 384.005 70.1275V72.283C384.005 73.0942 383.483 73.4998 382.44 73.4998H375.035V95.6455C375.035 98.0791 375.395 99.6667 376.113 100.408C376.855 101.127 377.735 101.486 378.755 101.486C379.543 101.486 380.482 101.254 381.571 100.791C382.684 100.327 383.449 99.9333 383.866 99.6088C384.283 99.2843 384.607 99.3886 384.839 99.9217L385.986 102.599C386.172 103.062 386.033 103.433 385.569 103.711C384.665 104.244 383.344 104.766 381.606 105.276C379.868 105.762 378.129 106.006 376.391 106.006C373.981 106.006 372.127 105.137 370.829 103.398C369.554 101.66 368.917 99.2032 368.917 96.0279V73.4998H364.814Z" fill="white"/>
</g>
<defs>
<filter id="filter0_d_7_14" x="9.9629" y="9.29598" width="249.9" height="140.552" filterUnits="userSpaceOnUse" color-interpolation-filters="sRGB">
<feFlood flood-opacity="0" result="BackgroundImageFix"/>
<feColorMatrix in="SourceAlpha" type="matrix" values="0 0 0 0 0 0 0 0 0 0 0 0 0 0 0 0 0 0 127 0" result="hardAlpha"/>
<feOffset dy="3.14467"/>
<feGaussianBlur stdDeviation="3.14467"/>
<feComposite in2="hardAlpha" operator="out"/>
<feColorMatrix type="matrix" values="0 0 0 0 1 0 0 0 0 1 0 0 0 0 1 0 0 0 0.25 0"/>
<feBlend mode="normal" in2="BackgroundImageFix" result="effect1_dropShadow_7_14"/>
<feBlend mode="normal" in="SourceGraphic" in2="effect1_dropShadow_7_14" result="shape"/>
</filter>
<filter id="filter1_d_7_14" x="101.497" y="53.5096" width="288.767" height="60.948" filterUnits="userSpaceOnUse" color-interpolation-filters="sRGB">
<feFlood flood-opacity="0" result="BackgroundImageFix"/>
<feColorMatrix in="SourceAlpha" type="matrix" values="0 0 0 0 0 0 0 0 0 0 0 0 0 0 0 0 0 0 127 0" result="hardAlpha"/>
<feOffset dy="4"/>
<feGaussianBlur stdDeviation="2"/>
<feComposite in2="hardAlpha" operator="out"/>
<feColorMatrix type="matrix" values="0 0 0 0 1 0 0 0 0 1 0 0 0 0 1 0 0 0 0.25 0"/>
<feBlend mode="normal" in2="BackgroundImageFix" result="effect1_dropShadow_7_14"/>
<feBlend mode="normal" in="SourceGraphic" in2="effect1_dropShadow_7_14" result="shape"/>
</filter>
<linearGradient id="paint0_linear_7_14" x1="68.8263" y1="9.25778" x2="62.3274" y2="117.139" gradientUnits="userSpaceOnUse">
<stop stop-color="#FF0000"/>
<stop offset="0.5" stop-color="#FF0000" stop-opacity="0.54"/>
<stop offset="1" stop-color="#FF0000" stop-opacity="0"/>
</linearGradient>
<linearGradient id="paint1_linear_7_14" x1="244.63" y1="34.4146" x2="244.63" y2="136.415" gradientUnits="userSpaceOnUse">
<stop stop-color="#FF0000"/>
<stop offset="1" stop-color="#FF0000" stop-opacity="0"/>
</linearGradient>
</defs>
</svg>
